<svg width="23" height="23" viewBox="0 0 23 23" fill="none" xmlns="http://www.w3.org/2000/svg" >
<g clip-path="url(#clip0_23_4651)" >
<path d="M20.2302 9.0589C19.7204 6.96628 18.4829 5.12322 16.739 3.85921C14.995 2.5952 12.8584 1.99266 10.711 2.15929C8.56366 2.32593 6.54555 3.25089 5.01751 4.76881C3.48948 6.28673 2.55112 8.29864 2.37022 10.4449C2.18931 12.5911 2.77764 14.7317 4.03003 16.4839C5.28242 18.2362 7.11722 19.486 9.2064 20.0097C11.2956 20.5334 13.5029 20.2971 15.4338 19.3428C17.3647 18.3885 18.8933 16.7786 19.7462 14.8009" stroke="current" stroke-miterlimit="10" stroke-linecap="round"/>
<path d="M21.2532 7.1228L20.2962 9.1028L18.3162 8.1458" stroke="current" stroke-linecap="round" stroke-linejoin="round"/>
</g>
<defs>
<clipPath id="clip0_23_4651">
<rect width="22" height="22" fill="white" transform="translate(0.287109 0.203857)"/>
</clipPath>
</defs>
</svg>
