<svg width="18" height="18" viewBox="0 0 18 18" fill="none" xmlns="http://www.w3.org/2000/svg">
<path fill-rule="evenodd" clip-rule="evenodd" d="M14.9558 5.60818V5.51012C14.9558 3.55287 13.3348 1.96432 11.3374 1.96432H6.30611C4.30878 1.96432 2.6877 3.55287 2.6877 5.51012V5.60818C2.68613 5.60818 2.68456 5.60819 2.68298 5.6082V8.00864C2.68456 8.00865 2.68613 8.00866 2.6877 8.00866V13.3901C2.6877 13.7157 2.95989 13.9824 3.29211 13.9824H3.94854V14.6296C3.94854 14.9355 4.20071 15.1865 4.51692 15.1865H5.22139C5.53359 15.1865 5.78976 14.9394 5.78976 14.6296V13.9824H11.8898V14.6296C11.8898 14.9355 12.142 15.1865 12.4582 15.1865H13.1627C13.4749 15.1865 13.731 14.9394 13.731 14.6296V13.9824H14.3554C14.6877 13.9824 14.9599 13.7196 14.9599 13.3901V8.01258H14.96V5.6082L14.9558 5.60818ZM6.98256 3.20379H10.661C11.0012 3.20379 11.2734 3.47443 11.2734 3.8039C11.2734 4.1373 10.9972 4.40402 10.661 4.40402H6.98256C6.64233 4.40402 6.37015 4.13338 6.37015 3.8039C6.37015 3.47051 6.64233 3.20379 6.98256 3.20379ZM4.7851 12.8214C4.30478 12.8214 3.91252 12.4409 3.91252 11.9663C3.91252 11.4956 4.30078 11.1112 4.7851 11.1112C5.26942 11.1112 5.65768 11.4917 5.65768 11.9663C5.65768 12.437 5.26542 12.8214 4.7851 12.8214ZM3.91652 8.5774V6.77704C3.91652 6.22399 4.37282 5.77684 4.9372 5.77684H12.6823C13.2467 5.77684 13.703 6.22399 13.703 6.77704V8.5774C13.703 9.42462 11.5096 10.1071 8.80777 10.1071C6.10597 10.1071 3.91652 9.4207 3.91652 8.5774ZM12.8585 12.8214C12.3781 12.8214 11.9859 12.4409 11.9859 11.9663C11.9859 11.4956 12.3741 11.1112 12.8585 11.1112C13.3428 11.1112 13.731 11.4917 13.731 11.9663C13.731 12.437 13.3388 12.8214 12.8585 12.8214Z" fill="#BCBDBD"/>
</svg>
