<svg width="24" height="25" viewBox="0 0 24 25" fill="none" xmlns="http://www.w3.org/2000/svg">
<mask id="mask0_138_1824" style="mask-type:alpha" maskUnits="userSpaceOnUse" x="5" y="5" width="14" height="15">
<path d="M18.2997 6.29614C18.1129 6.10889 17.8592 6.00365 17.5947 6.00365C17.3302 6.00365 17.0766 6.10889 16.8897 6.29614L11.9997 11.1761L7.10973 6.28614C6.9229 6.09889 6.66924 5.99365 6.40473 5.99365C6.14021 5.99365 5.88656 6.09889 5.69973 6.28614C5.30973 6.67614 5.30973 7.30614 5.69973 7.69614L10.5897 12.5861L5.69973 17.4761C5.30973 17.8661 5.30973 18.4961 5.69973 18.8861C6.08973 19.2761 6.71973 19.2761 7.10973 18.8861L11.9997 13.9961L16.8897 18.8861C17.2797 19.2761 17.9097 19.2761 18.2997 18.8861C18.6897 18.4961 18.6897 17.8661 18.2997 17.4761L13.4097 12.5861L18.2997 7.69614C18.6797 7.31614 18.6797 6.67614 18.2997 6.29614Z" fill="black"/>
</mask>
<g mask="url(#mask0_138_1824)">
<rect y="0.586182" width="24" height="24" fill="#333333"/>
</g>
</svg>
