<svg width="15" height="15" viewBox="0 0 15 15" fill="none" xmlns="http://www.w3.org/2000/svg">
<path fill-rule="evenodd" clip-rule="evenodd" d="M12.233 4.99973V4.91897C12.233 3.30712 10.898 1.9989 9.25318 1.9989H5.10972C3.46487 1.9989 2.12986 3.30712 2.12986 4.91897V4.99973C2.12857 4.99973 2.12727 4.99973 2.12598 4.99974V6.97657C2.12727 6.97658 2.12857 6.97659 2.12986 6.97659V11.4084C2.12986 11.6765 2.35401 11.8961 2.62761 11.8961H3.1682V12.4291C3.1682 12.6811 3.37587 12.8878 3.63628 12.8878H4.21643C4.47354 12.8878 4.6845 12.6843 4.6845 12.4291V11.8961H9.70807V12.4291C9.70807 12.6811 9.91574 12.8878 10.1761 12.8878H10.7563C11.0134 12.8878 11.2244 12.6843 11.2244 12.4291V11.8961H11.7386C12.0122 11.8961 12.2363 11.6797 12.2363 11.4084V6.97982H12.2364V4.99974L12.233 4.99973ZM5.6668 3.01963H8.69611C8.97629 3.01963 9.20044 3.24252 9.20044 3.51385C9.20044 3.78841 8.973 4.00806 8.69611 4.00806H5.6668C5.38661 4.00806 5.16247 3.78518 5.16247 3.51385C5.16247 3.23929 5.38661 3.01963 5.6668 3.01963ZM3.85713 10.94C3.46157 10.94 3.13853 10.6267 3.13853 10.2358C3.13853 9.84821 3.45828 9.53165 3.85713 9.53165C4.25598 9.53165 4.57572 9.84497 4.57572 10.2358C4.57572 10.6234 4.25269 10.94 3.85713 10.94ZM3.14183 7.44496V5.96232C3.14183 5.50686 3.51761 5.13862 3.98239 5.13862H10.3607C10.8255 5.13862 11.2013 5.50686 11.2013 5.96232V7.44496C11.2013 8.14268 9.39492 8.70473 7.16992 8.70473C4.94491 8.70473 3.14183 8.13945 3.14183 7.44496ZM10.5058 10.94C10.1102 10.94 9.78718 10.6267 9.78718 10.2358C9.78718 9.84821 10.1069 9.53165 10.5058 9.53165C10.9046 9.53165 11.2244 9.84497 11.2244 10.2358C11.2244 10.6234 10.9013 10.94 10.5058 10.94Z" fill="white"/>
</svg>
