<svg width="17" height="18" viewBox="0 0 17 18" fill="none" xmlns="http://www.w3.org/2000/svg">
<rect y="0.0754395" width="17" height="17" rx="2" fill="#BCBDBD"/>
<path fill-rule="evenodd" clip-rule="evenodd" d="M13.9124 5.95726V5.87074C13.9124 4.14376 12.482 2.7421 10.7197 2.7421H6.28025C4.5179 2.7421 3.08754 4.14376 3.08754 5.87074V5.95726C3.08615 5.95726 3.08476 5.95727 3.08337 5.95728V8.07531C3.08476 8.07533 3.08615 8.07533 3.08754 8.07533V12.8237C3.08754 13.1109 3.3277 13.3463 3.62083 13.3463H4.20004V13.9173C4.20004 14.1873 4.42254 14.4088 4.70155 14.4088H5.32314C5.59862 14.4088 5.82465 14.1907 5.82465 13.9173V13.3463H11.207V13.9173C11.207 14.1873 11.4295 14.4088 11.7086 14.4088H12.3301C12.6056 14.4088 12.8317 14.1907 12.8317 13.9173V13.3463H13.3826C13.6757 13.3463 13.9159 13.1144 13.9159 12.8237V8.07879H13.916V5.95728L13.9124 5.95726ZM6.87711 3.83574H10.1228C10.423 3.83574 10.6632 4.07454 10.6632 4.36525C10.6632 4.65943 10.4195 4.89477 10.1228 4.89477H6.87711C6.57691 4.89477 6.33676 4.65597 6.33676 4.36525C6.33676 4.07108 6.57691 3.83574 6.87711 3.83574ZM4.93818 12.3218C4.51437 12.3218 4.16826 11.9861 4.16826 11.5674C4.16826 11.1521 4.51084 10.8129 4.93818 10.8129C5.36552 10.8129 5.7081 11.1486 5.7081 11.5674C5.7081 11.9827 5.36199 12.3218 4.93818 12.3218ZM4.17179 8.57716V6.98861C4.17179 6.50062 4.57441 6.10608 5.07239 6.10608H11.9063C12.4043 6.10608 12.8069 6.50062 12.8069 6.98861V8.57716C12.8069 9.32471 10.8715 9.92691 8.48759 9.92691C6.10366 9.92691 4.17179 9.32125 4.17179 8.57716ZM12.0617 12.3218C11.6379 12.3218 11.2918 11.9861 11.2918 11.5674C11.2918 11.1521 11.6344 10.8129 12.0617 10.8129C12.4891 10.8129 12.8317 11.1486 12.8317 11.5674C12.8317 11.9827 12.4855 12.3218 12.0617 12.3218Z" fill="white"/>
</svg>
