<svg width="49" height="23" viewBox="0 0 49 23" fill="none" xmlns="http://www.w3.org/2000/svg">
<rect x="0.5" y="0.932861" width="48" height="21" rx="3.5" fill="white"/>
<path d="M14.734 6.33586H13.59V16.2799H14.734V6.33586ZM12.82 8.41486V7.50186H10.389V6.35786H9.256V7.50186H6.814V8.41486H12.82ZM10.389 13.4969V12.5619C11.533 12.3859 12.248 11.7149 12.248 10.7469C12.248 9.63586 11.269 8.89886 9.828 8.89886C8.387 8.89886 7.397 9.63586 7.397 10.7469C7.397 11.7149 8.112 12.3859 9.256 12.5619V13.5299C8.321 13.5629 7.408 13.5629 6.616 13.5629L6.759 14.4979C8.563 14.4979 10.917 14.4649 13.106 14.0909L13.029 13.2659C12.182 13.3869 11.28 13.4419 10.389 13.4969ZM8.475 10.7469C8.475 10.1309 9.025 9.76786 9.828 9.76786C10.62 9.76786 11.17 10.1309 11.17 10.7469C11.17 11.3629 10.62 11.7369 9.828 11.7369C9.025 11.7369 8.475 11.3629 8.475 10.7469ZM25.9201 11.2639V10.3289H24.3691V6.33586H23.2361V16.2799H24.3691V11.2639H25.9201ZM20.1121 9.50386V8.93186H22.2131V8.01886H20.1121V6.54486H18.9791V8.01886H16.8451V8.93186H18.9791V9.50386C18.9791 11.1209 18.0551 12.8039 16.5371 13.5299L17.1641 14.3989C18.3081 13.8709 19.1221 12.7819 19.5621 11.4949C19.9691 12.6939 20.7611 13.7059 21.8281 14.2229L22.4551 13.3539C20.9921 12.6499 20.1121 11.0219 20.1121 9.50386Z" fill="#818181"/>
<mask id="mask0_23_3250" style="mask-type:alpha" maskUnits="userSpaceOnUse" x="28" y="3" width="16" height="16">
<path d="M31.7875 8.25253C30.4492 9.58319 29.7801 11.3397 29.7801 13.0886H29.149C28.4723 13.0886 28.1301 13.9098 28.6091 14.3888L30.0006 15.7727C30.2972 16.0693 30.7762 16.0693 31.0728 15.7727L32.4643 14.3812C32.9433 13.9098 32.6087 13.0886 31.932 13.0886H31.3009C31.3009 11.5526 31.9548 10.0242 33.2855 8.94447C35.2016 7.38569 38.0531 7.38569 39.9692 8.94447C41.2923 10.0242 41.9462 11.5526 41.9462 13.0886C41.9462 13.6817 41.8474 14.2671 41.6497 14.8298C41.5584 15.1036 41.6421 15.4001 41.8474 15.6054C42.2276 15.9856 42.9043 15.864 43.0792 15.3469C43.3377 14.6169 43.467 13.8565 43.467 13.0886C43.467 11.3397 42.7979 9.58319 41.4596 8.25253C38.7906 5.57598 34.4565 5.57598 31.7875 8.25253Z" fill="black"/>
</mask>
<g mask="url(#mask0_23_3250)">
<rect x="27" y="2.43286" width="18" height="18" fill="#818181"/>
</g>
<rect x="0.5" y="0.932861" width="48" height="21" rx="3.5" stroke="#818181"/>
</svg>
