<svg width="41" height="59" viewBox="0 0 41 59" fill="none" xmlns="http://www.w3.org/2000/svg">
<path d="M4.33552 32.9161L4.32759 32.9036L4.31892 32.8916C2.17548 29.9161 0.879921 26.3889 0.577692 22.7024C0.275461 19.0159 0.978565 15.3164 2.60799 12.0159C4.23738 8.71542 6.72865 5.94435 9.80302 4.00991C12.8772 2.07559 16.4143 1.05329 20.0207 1.05567C23.6236 1.06231 27.1552 2.09017 30.2241 4.02645C33.2931 5.96285 35.7801 8.73254 37.4079 12.0298C39.0357 15.327 39.7403 19.0223 39.4428 22.7055C39.1452 26.3887 37.8574 29.9147 35.7231 32.8926L35.715 32.9038L35.7076 32.9156L19.9972 57.6228L4.33552 32.9161Z" fill="#F75A45" stroke="#C94921"/>
<path d="M19.4103 25.3217V23.9177H14.8343V21.4217H18.2533V20.0437H11.5583V16.8977H18.1623V15.5197H9.82928V21.4217H13.1183V23.9177H8.56828V25.3217H19.4103ZM26.8973 21.6557L27.6773 20.3167C27.2006 20.1867 26.7889 20.0177 26.4423 19.8097C26.1043 19.593 25.8226 19.3547 25.5973 19.0947C25.3719 18.826 25.2029 18.54 25.0903 18.2367C24.9863 17.9247 24.9299 17.6127 24.9213 17.3007H27.2873V15.9487H24.9213V14.6617H23.2053V15.9487H20.8653V17.3007H23.2053C23.1966 17.6387 23.1359 17.9723 23.0233 18.3017C22.9193 18.631 22.7546 18.9387 22.5293 19.2247C22.3039 19.5107 22.0179 19.7663 21.6713 19.9917C21.3333 20.217 20.9216 20.3947 20.4363 20.5247L21.2553 21.8637C21.9399 21.6557 22.5163 21.3523 22.9843 20.9537C23.4609 20.555 23.8293 20.0913 24.0893 19.5627C24.3579 20.0567 24.7219 20.4857 25.1813 20.8497C25.6493 21.205 26.2213 21.4737 26.8973 21.6557ZM29.9523 19.0557H31.5383V17.6517H29.9523V14.7007H28.2363V22.0327H29.9523V19.0557ZM29.9523 22.5397H21.9573V23.9047H28.2363V26.6867H29.9523V22.5397Z" fill="white"/>
</svg>
