<svg width="41" height="59" viewBox="0 0 41 59" fill="none" xmlns="http://www.w3.org/2000/svg">
<path d="M4.93172 33.3124L4.92378 33.2999L4.91511 33.2878C2.77168 30.3124 1.47611 26.7851 1.17388 23.0987C0.871653 19.4122 1.57476 15.7126 3.20419 12.4121C4.83357 9.11166 7.32484 6.34059 10.3992 4.40615C13.4734 2.47183 17.0105 1.44953 20.6169 1.45191C24.2198 1.45855 27.7514 2.48641 30.8203 4.42269C33.8893 6.35909 36.3763 9.12878 38.0041 12.426C39.6319 15.7233 40.3365 19.4185 40.039 23.1017C39.7414 26.785 38.4535 30.3109 36.3193 33.2888L36.3112 33.3001L36.3038 33.3118L20.5934 58.019L4.93172 33.3124Z" fill="#2FC863" stroke="#1A8D42"/>
<path d="M9.60647 18.6199L10.0745 19.8809C11.2531 19.8202 12.2021 19.6599 12.9215 19.3999C13.6408 19.1312 14.1868 18.7759 14.5595 18.3339C14.9495 18.7759 15.5041 19.1312 16.2235 19.3999C16.9515 19.6599 17.8918 19.8202 19.0445 19.8809L19.5255 18.6199C18.9275 18.5939 18.4031 18.5419 17.9525 18.4639C17.5018 18.3772 17.1161 18.2776 16.7955 18.1649C16.4835 18.0436 16.2278 17.9049 16.0285 17.7489C15.8378 17.5929 15.6991 17.4326 15.6125 17.2679H18.9405V16.0329H15.4175V15.0839H13.7015V16.0329H10.2045V17.2679H13.5065C13.3418 17.6059 12.9518 17.9049 12.3365 18.1649C11.7211 18.4162 10.8111 18.5679 9.60647 18.6199ZM15.4305 22.1559V21.4409H19.9675V20.1799H9.19047V21.4409H13.7145V22.1559H10.3995V23.3909H16.9775V23.9629H10.4125V26.9789H18.9795V25.7439H12.1155V25.1199H18.6675V22.1559H15.4305ZM32.1215 18.8019V17.4109H30.5485V15.0969H28.8325V21.1809H30.5485V18.8019H32.1215ZM21.4745 20.8689H27.2075V15.6169H25.5175V17.0469H23.1645V15.6169H21.4745V20.8689ZM23.1645 18.3339H25.5175V19.5299H23.1645V18.3339ZM30.8865 25.6529H24.3605V24.8989H30.5485V21.6489H22.6445V22.9489H28.8585V23.6769H22.6575V26.9789H30.8865V25.6529Z" fill="white"/>
</svg>
