<svg width="19" height="19" viewBox="0 0 19 19" fill="none" xmlns="http://www.w3.org/2000/svg">
<path fill-rule="evenodd" clip-rule="evenodd" d="M15.4968 6.29106V6.18724C15.4968 4.11485 13.7803 2.43286 11.6655 2.43286H6.3382C4.22339 2.43286 2.50695 4.11485 2.50695 6.18724V6.29106C2.50528 6.29106 2.50362 6.29107 2.50195 6.29108V8.83272C2.50362 8.83274 2.50528 8.83274 2.50695 8.83274V14.5308C2.50695 14.8755 2.79514 15.1579 3.14691 15.1579H3.84196V15.8431C3.84196 16.1671 4.10896 16.4329 4.44377 16.4329H5.18967C5.52025 16.4329 5.79148 16.1712 5.79148 15.8431V15.1579H12.2504V15.8431C12.2504 16.1671 12.5174 16.4329 12.8522 16.4329H13.5981C13.9287 16.4329 14.1999 16.1712 14.1999 15.8431V15.1579H14.861C15.2128 15.1579 15.501 14.8796 15.501 14.5308V8.8369H15.5011V6.29108L15.4968 6.29106ZM7.05444 3.74523H10.9493C11.3095 3.74523 11.5977 4.03179 11.5977 4.38065C11.5977 4.73366 11.3053 5.01607 10.9493 5.01607H7.05444C6.6942 5.01607 6.40601 4.72951 6.40601 4.38065C6.40601 4.02764 6.6942 3.74523 7.05444 3.74523ZM4.72772 13.9286C4.21915 13.9286 3.80381 13.5257 3.80381 13.0232C3.80381 12.5248 4.21491 12.1178 4.72772 12.1178C5.24053 12.1178 5.65163 12.5207 5.65163 13.0232C5.65163 13.5216 5.23629 13.9286 4.72772 13.9286ZM3.80805 9.43494V7.52868C3.80805 6.9431 4.2912 6.46965 4.88877 6.46965H13.0895C13.6871 6.46965 14.1702 6.9431 14.1702 7.52868V9.43494C14.1702 10.332 11.8477 11.0546 8.98702 11.0546C6.1263 11.0546 3.80805 10.3278 3.80805 9.43494ZM13.276 13.9286C12.7674 13.9286 12.3521 13.5257 12.3521 13.0232C12.3521 12.5248 12.7632 12.1178 13.276 12.1178C13.7888 12.1178 14.1999 12.5207 14.1999 13.0232C14.1999 13.5216 13.7846 13.9286 13.276 13.9286Z" fill="white"/>
</svg>
