<svg width="15" height="14" viewBox="0 0 15 14" fill='none' xmlns="http://www.w3.org/2000/svg">
<path fill-rule="evenodd" clip-rule="evenodd" d="M5.05683 1.55554C3.71431 1.55554 2.62598 2.64387 2.62598 3.9864V9.807C2.62598 10.1426 2.89806 10.4147 3.23369 10.4147H12.1294C12.465 10.4147 12.7371 10.1426 12.7371 9.807V3.9864C12.7371 2.64387 11.6488 1.55554 10.3062 1.55554H5.05683ZM3.89142 3.29901C3.72361 3.29901 3.58757 3.43505 3.58757 3.60287V6.11313C3.58757 6.28095 3.72361 6.41699 3.89142 6.41699H11.4743C11.6421 6.41699 11.7782 6.28095 11.7782 6.11313V3.60287C11.7782 3.43505 11.6421 3.29901 11.4743 3.29901H3.89142ZM4.9712 8.49897C4.9712 8.87567 4.66147 9.18103 4.27938 9.18103C3.8973 9.18103 3.58757 8.87567 3.58757 8.49897C3.58757 8.12228 3.8973 7.81691 4.27938 7.81691C4.66147 7.81691 4.9712 8.12228 4.9712 8.49897ZM11.0834 9.18103C11.4655 9.18103 11.7752 8.87567 11.7752 8.49897C11.7752 8.12228 11.4655 7.81691 11.0834 7.81691C10.7013 7.81691 10.3916 8.12228 10.3916 8.49897C10.3916 8.87567 10.7013 9.18103 11.0834 9.18103Z" fill="white"/>
<path fill-rule="evenodd" clip-rule="evenodd" d="M3.40527 12.4441L4.67794 10.7908H6.09163L6.0912 10.7913H9.34396L9.34353 10.7908H10.7572L12.0299 12.4441H10.6162L9.97842 11.6156H5.45674L4.81896 12.4441H3.40527Z"/>
</svg>
